<svg width="65" height="65" viewBox="0 0 65 65" fill="none" xmlns="http://www.w3.org/2000/svg">
<g clip-path="url(#clip0)">
<path d="M62.6219 0H2.37809C1.06476 0 0 1.06476 0 2.37809V62.622C0 63.9352 1.06476 65 2.37809 65H62.622C63.9354 65 65.0001 63.9352 65.0001 62.6219V2.37809C65 1.06476 63.9352 0 62.6219 0ZM60.244 60.244H4.75605V4.75605H60.2438V60.244H60.244Z" fill="#3278E2"/>
<path d="M26.6102 18.1981C21.3493 18.1981 17.2702 20.638 17.2702 27.1949V37.2973C17.2703 43.8542 21.3493 46.2941 26.6102 46.2941C31.8712 46.2941 35.9883 43.8542 35.9883 37.2973V27.1949C35.9883 20.638 31.8711 18.1981 26.6102 18.1981ZM30.0413 37.2973C30.0413 39.9278 28.7451 41.1096 26.6102 41.1096C24.4754 41.1096 23.2174 39.9276 23.2174 37.2973V27.1949C23.2174 24.5644 24.4755 23.3827 26.6102 23.3827C28.745 23.3827 30.0413 24.5644 30.0413 27.1949V37.2973Z" fill="#3278E2"/>
<path d="M43.5362 18.3887L38.504 21.4384C37.7414 21.8959 37.3984 22.6582 37.3984 23.4588C37.3984 24.6407 38.1607 25.8225 39.2664 25.8225C39.5332 25.8225 39.8764 25.7462 40.2195 25.5174L41.325 24.8311V44.2355C41.325 45.4553 42.8118 46.0653 44.2985 46.0653C45.7853 46.0653 47.272 45.4553 47.272 44.2355V19.9899C47.2722 18.4319 44.6716 17.679 43.5362 18.3887Z" fill="#3278E2"/>
</g>
<defs>
<clipPath id="clip0">
<rect width="65" height="65" fill="white"/>
</clipPath>
</defs>
</svg>
