<svg width="65" height="65" viewBox="0 0 65 65" fill="none" xmlns="http://www.w3.org/2000/svg">
<g clip-path="url(#clip0)">
<path d="M62.6219 0H2.37809C1.06476 0 0 1.06476 0 2.37809V62.622C0 63.9352 1.06476 65 2.37809 65H62.622C63.9354 65 65.0001 63.9352 65.0001 62.6219V2.37809C65 1.06476 63.9352 0 62.6219 0ZM60.244 60.244H4.75605V4.75605H60.2438V60.244H60.244Z" fill="#FCBE02"/>
<path d="M22.6102 18.1981C17.3493 18.1981 13.2702 20.638 13.2702 27.1949V37.2973C13.2703 43.8542 17.3493 46.2941 22.6102 46.2941C27.8712 46.2941 31.9883 43.8542 31.9883 37.2973V27.1949C31.9883 20.638 27.8711 18.1981 22.6102 18.1981ZM26.0413 37.2973C26.0413 39.9278 24.7451 41.1096 22.6102 41.1096C20.4754 41.1096 19.2174 39.9276 19.2174 37.2973V27.1949C19.2174 24.5644 20.4755 23.3827 22.6102 23.3827C24.745 23.3827 26.0413 24.5644 26.0413 27.1949V37.2973Z" fill="#FCBE02"/>
<path d="M41.0357 45.95C37.1363 45.95 36.9101 45.8724 36.5108 45.7357C35.7199 45.465 35.1287 44.8502 34.8888 44.0489C34.5154 42.8025 35.1804 41.8081 35.4308 41.4337C35.6511 41.1042 35.9707 40.6745 36.4543 40.0241C37.572 38.5211 39.6523 35.7237 43.1382 30.6085C44.2792 28.8557 44.9766 27.64 45.151 26.1028C45.0818 24.3318 43.6572 22.9129 41.9161 22.9129C40.3722 22.9129 39.0362 24.0391 38.7394 25.5908C38.4848 26.922 37.2274 27.7891 35.9313 27.5277C34.6351 27.2662 33.7907 25.975 34.0453 24.6438C34.7816 20.7941 38.0918 18 41.9162 18C46.3391 18 49.9375 21.6955 49.9375 26.2379C49.7649 28.8415 48.7662 30.8149 47.0575 33.4256C44.6773 36.9183 42.9394 39.3511 41.7098 41.036C43.6999 41.0333 46.1459 41.0142 48.4481 40.9845C48.4583 40.9843 48.4686 40.9843 48.4788 40.9843C49.7858 40.9843 50.8534 42.0637 50.8698 43.4099C50.8864 44.7665 49.829 45.8801 48.5082 45.897C48.4813 45.8974 45.7912 45.9319 43.0737 45.9446C42.3013 45.9482 41.6263 45.95 41.0357 45.95V45.95Z" fill="#FCBE02"/>
</g>
<defs>
<clipPath id="clip0">
<rect width="65" height="65" fill="white"/>
</clipPath>
</defs>
</svg>
