<svg width="65" height="65" viewBox="0 0 65 65" fill="none" xmlns="http://www.w3.org/2000/svg">
<g clip-path="url(#clip0)">
<path d="M62.6219 0H2.37809C1.06476 0 0 1.06476 0 2.37809V62.622C0 63.9352 1.06476 65 2.37809 65H62.622C63.9354 65 65.0001 63.9352 65.0001 62.6219V2.37809C65 1.06476 63.9352 0 62.6219 0ZM60.244 60.244H4.75605V4.75605H60.2438V60.244H60.244Z" fill="#2EBCAE"/>
<path d="M22.6102 18.1981C17.3493 18.1981 13.2702 20.638 13.2702 27.1949V37.2973C13.2703 43.8542 17.3493 46.2941 22.6102 46.2941C27.8712 46.2941 31.9883 43.8542 31.9883 37.2973V27.1949C31.9883 20.638 27.8711 18.1981 22.6102 18.1981ZM26.0413 37.2973C26.0413 39.9278 24.7451 41.1096 22.6102 41.1096C20.4754 41.1096 19.2174 39.9277 19.2174 37.2973V27.1949C19.2174 24.5644 20.4755 23.3828 22.6102 23.3828C24.745 23.3828 26.0413 24.5644 26.0413 27.1949V37.2973Z" fill="#2EBCAE"/>
<path d="M51.5212 26.2599C51.5212 21.7054 47.5653 18 42.7028 18C38.4984 18 34.8593 20.8016 34.0499 24.6616C33.7693 26 34.7001 27.2981 36.129 27.561C37.558 27.8237 38.9439 26.9519 39.2245 25.6136C39.5494 24.0641 41.0122 22.9395 42.7028 22.9395C44.6574 22.9395 46.2477 24.429 46.2477 26.2599C46.2477 28.0907 44.6574 29.5803 42.7028 29.5803C41.2466 29.5803 40.0661 30.686 40.0661 32.05C40.0661 33.414 41.2466 34.5197 42.7028 34.5197C44.6574 34.5197 46.2477 36.0093 46.2477 37.8401C46.2477 39.671 44.6574 41.1605 42.7028 41.1605C41.0122 41.1605 39.5494 40.0359 39.2245 38.4864C38.9439 37.148 37.5581 36.276 36.1291 36.539C34.7001 36.8019 33.7693 38.1 34.05 39.4384C34.8593 43.2984 38.4984 46.1 42.7028 46.1C47.5653 46.1 51.5212 42.3946 51.5212 37.8401C51.5212 35.5868 50.5525 33.5417 48.9852 32.05C50.5525 30.5583 51.5212 28.5132 51.5212 26.2599Z" fill="#2EBCAE"/>
</g>
<defs>
<clipPath id="clip0">
<rect width="65" height="65" fill="white"/>
</clipPath>
</defs>
</svg>
