<svg width="77" height="115" viewBox="0 0 77 115" fill="none" xmlns="http://www.w3.org/2000/svg">
<g opacity="0.3">
<mask id="mask0" style="mask-type:alpha" maskUnits="userSpaceOnUse" x="5" y="0" width="12" height="11">
<path d="M10.7905 10.425C13.6781 10.425 16.0189 8.09121 16.0189 5.21245C16.0189 2.33368 13.6781 0 10.7905 0C7.90297 0 5.56213 2.33368 5.56213 5.21245C5.56213 8.09121 7.90297 10.425 10.7905 10.425Z" fill="url(#paint0_linear)"/>
</mask>
<g mask="url(#mask0)">
<path d="M10.7905 10.425C13.6781 10.425 16.0189 8.09121 16.0189 5.21245C16.0189 2.33368 13.6781 0 10.7905 0C7.90297 0 5.56213 2.33368 5.56213 5.21245C5.56213 8.09121 7.90297 10.425 10.7905 10.425Z" fill="url(#paint1_linear)"/>
</g>
<mask id="mask1" style="mask-type:alpha" maskUnits="userSpaceOnUse" x="35" y="0" width="12" height="11">
<path d="M41.0717 10.425C43.9592 10.425 46.3 8.09121 46.3 5.21245C46.3 2.33368 43.9592 0 41.0717 0C38.1841 0 35.8433 2.33368 35.8433 5.21245C35.8433 8.09121 38.1841 10.425 41.0717 10.425Z" fill="url(#paint2_linear)"/>
</mask>
<g mask="url(#mask1)">
<path d="M41.0717 10.425C43.9592 10.425 46.3 8.09121 46.3 5.21245C46.3 2.33368 43.9592 0 41.0717 0C38.1841 0 35.8433 2.33368 35.8433 5.21245C35.8433 8.09121 38.1841 10.425 41.0717 10.425Z" fill="url(#paint3_linear)"/>
</g>
<mask id="mask2" style="mask-type:alpha" maskUnits="userSpaceOnUse" x="66" y="0" width="11" height="11">
<path d="M71.3526 10.425C74.2402 10.425 76.581 8.09121 76.581 5.21245C76.581 2.33368 74.2402 0 71.3526 0C68.4651 0 66.1243 2.33368 66.1243 5.21245C66.1243 8.09121 68.4651 10.425 71.3526 10.425Z" fill="url(#paint4_linear)"/>
</mask>
<g mask="url(#mask2)">
<path d="M71.3526 10.425C74.2402 10.425 76.581 8.09121 76.581 5.21245C76.581 2.33368 74.2402 0 71.3526 0C68.4651 0 66.1243 2.33368 66.1243 5.21245C66.1243 8.09121 68.4651 10.425 71.3526 10.425Z" fill="url(#paint5_linear)"/>
</g>
<mask id="mask3" style="mask-type:alpha" maskUnits="userSpaceOnUse" x="5" y="26" width="12" height="11">
<path d="M10.7905 36.5958C13.6781 36.5958 16.0189 34.2621 16.0189 31.3834C16.0189 28.5046 13.6781 26.171 10.7905 26.171C7.90297 26.171 5.56213 28.5046 5.56213 31.3834C5.56213 34.2621 7.90297 36.5958 10.7905 36.5958Z" fill="url(#paint6_linear)"/>
</mask>
<g mask="url(#mask3)">
<path d="M10.7905 36.5958C13.6781 36.5958 16.0189 34.2621 16.0189 31.3834C16.0189 28.5046 13.6781 26.171 10.7905 26.171C7.90297 26.171 5.56213 28.5046 5.56213 31.3834C5.56213 34.2621 7.90297 36.5958 10.7905 36.5958Z" fill="url(#paint7_linear)"/>
</g>
<mask id="mask4" style="mask-type:alpha" maskUnits="userSpaceOnUse" x="35" y="26" width="12" height="11">
<path d="M41.0717 36.5958C43.9592 36.5958 46.3 34.2621 46.3 31.3834C46.3 28.5046 43.9592 26.171 41.0717 26.171C38.1841 26.171 35.8433 28.5046 35.8433 31.3834C35.8433 34.2621 38.1841 36.5958 41.0717 36.5958Z" fill="url(#paint8_linear)"/>
</mask>
<g mask="url(#mask4)">
<path d="M41.0717 36.5958C43.9592 36.5958 46.3 34.2621 46.3 31.3834C46.3 28.5046 43.9592 26.171 41.0717 26.171C38.1841 26.171 35.8433 28.5046 35.8433 31.3834C35.8433 34.2621 38.1841 36.5958 41.0717 36.5958Z" fill="url(#paint9_linear)"/>
</g>
<mask id="mask5" style="mask-type:alpha" maskUnits="userSpaceOnUse" x="66" y="26" width="11" height="11">
<path d="M71.3526 36.5958C74.2402 36.5958 76.581 34.2621 76.581 31.3834C76.581 28.5046 74.2402 26.171 71.3526 26.171C68.4651 26.171 66.1243 28.5046 66.1243 31.3834C66.1243 34.2621 68.4651 36.5958 71.3526 36.5958Z" fill="url(#paint10_linear)"/>
</mask>
<g mask="url(#mask5)">
<path d="M71.3526 36.5958C74.2402 36.5958 76.581 34.2621 76.581 31.3834C76.581 28.5046 74.2402 26.171 71.3526 26.171C68.4651 26.171 66.1243 28.5046 66.1243 31.3834C66.1243 34.2621 68.4651 36.5958 71.3526 36.5958Z" fill="url(#paint11_linear)"/>
</g>
<mask id="mask6" style="mask-type:alpha" maskUnits="userSpaceOnUse" x="5" y="52" width="12" height="11">
<path d="M10.7905 62.7125C13.6781 62.7125 16.0189 60.3788 16.0189 57.5C16.0189 54.6212 13.6781 52.2875 10.7905 52.2875C7.90297 52.2875 5.56213 54.6212 5.56213 57.5C5.56213 60.3788 7.90297 62.7125 10.7905 62.7125Z" fill="url(#paint12_linear)"/>
</mask>
<g mask="url(#mask6)">
<path d="M10.7905 62.7125C13.6781 62.7125 16.0189 60.3788 16.0189 57.5C16.0189 54.6212 13.6781 52.2875 10.7905 52.2875C7.90297 52.2875 5.56213 54.6212 5.56213 57.5C5.56213 60.3788 7.90297 62.7125 10.7905 62.7125Z" fill="url(#paint13_linear)"/>
</g>
<mask id="mask7" style="mask-type:alpha" maskUnits="userSpaceOnUse" x="35" y="52" width="12" height="11">
<path d="M41.0717 62.7125C43.9592 62.7125 46.3 60.3788 46.3 57.5C46.3 54.6212 43.9592 52.2875 41.0717 52.2875C38.1841 52.2875 35.8433 54.6212 35.8433 57.5C35.8433 60.3788 38.1841 62.7125 41.0717 62.7125Z" fill="url(#paint14_linear)"/>
</mask>
<g mask="url(#mask7)">
<path d="M41.0717 62.7125C43.9592 62.7125 46.3 60.3788 46.3 57.5C46.3 54.6212 43.9592 52.2875 41.0717 52.2875C38.1841 52.2875 35.8433 54.6212 35.8433 57.5C35.8433 60.3788 38.1841 62.7125 41.0717 62.7125Z" fill="url(#paint15_linear)"/>
</g>
<mask id="mask8" style="mask-type:alpha" maskUnits="userSpaceOnUse" x="66" y="52" width="11" height="11">
<path d="M71.3526 62.7125C74.2402 62.7125 76.581 60.3788 76.581 57.5C76.581 54.6212 74.2402 52.2875 71.3526 52.2875C68.4651 52.2875 66.1243 54.6212 66.1243 57.5C66.1243 60.3788 68.4651 62.7125 71.3526 62.7125Z" fill="url(#paint16_linear)"/>
</mask>
<g mask="url(#mask8)">
<path d="M71.3526 62.7125C74.2402 62.7125 76.581 60.3788 76.581 57.5C76.581 54.6212 74.2402 52.2875 71.3526 52.2875C68.4651 52.2875 66.1243 54.6212 66.1243 57.5C66.1243 60.3788 68.4651 62.7125 71.3526 62.7125Z" fill="url(#paint17_linear)"/>
</g>
<mask id="mask9" style="mask-type:alpha" maskUnits="userSpaceOnUse" x="5" y="78" width="12" height="11">
<path d="M10.7905 88.8834C13.6781 88.8834 16.0189 86.5496 16.0189 83.6709C16.0189 80.7921 13.6781 78.4584 10.7905 78.4584C7.90297 78.4584 5.56213 80.7921 5.56213 83.6709C5.56213 86.5496 7.90297 88.8834 10.7905 88.8834Z" fill="url(#paint18_linear)"/>
</mask>
<g mask="url(#mask9)">
<path d="M10.7905 88.8834C13.6781 88.8834 16.0189 86.5496 16.0189 83.6709C16.0189 80.7921 13.6781 78.4584 10.7905 78.4584C7.90297 78.4584 5.56213 80.7921 5.56213 83.6709C5.56213 86.5496 7.90297 88.8834 10.7905 88.8834Z" fill="url(#paint19_linear)"/>
</g>
<mask id="mask10" style="mask-type:alpha" maskUnits="userSpaceOnUse" x="35" y="78" width="12" height="11">
<path d="M41.0717 88.8834C43.9592 88.8834 46.3 86.5496 46.3 83.6709C46.3 80.7921 43.9592 78.4584 41.0717 78.4584C38.1841 78.4584 35.8433 80.7921 35.8433 83.6709C35.8433 86.5496 38.1841 88.8834 41.0717 88.8834Z" fill="url(#paint20_linear)"/>
</mask>
<g mask="url(#mask10)">
<path d="M41.0717 88.8834C43.9592 88.8834 46.3 86.5496 46.3 83.6709C46.3 80.7921 43.9592 78.4584 41.0717 78.4584C38.1841 78.4584 35.8433 80.7921 35.8433 83.6709C35.8433 86.5496 38.1841 88.8834 41.0717 88.8834Z" fill="url(#paint21_linear)"/>
</g>
<mask id="mask11" style="mask-type:alpha" maskUnits="userSpaceOnUse" x="66" y="78" width="11" height="11">
<path d="M71.3526 88.8834C74.2402 88.8834 76.581 86.5496 76.581 83.6709C76.581 80.7921 74.2402 78.4584 71.3526 78.4584C68.4651 78.4584 66.1243 80.7921 66.1243 83.6709C66.1243 86.5496 68.4651 88.8834 71.3526 88.8834Z" fill="url(#paint22_linear)"/>
</mask>
<g mask="url(#mask11)">
<path d="M71.3526 88.8834C74.2402 88.8834 76.581 86.5496 76.581 83.6709C76.581 80.7921 74.2402 78.4584 71.3526 78.4584C68.4651 78.4584 66.1243 80.7921 66.1243 83.6709C66.1243 86.5496 68.4651 88.8834 71.3526 88.8834Z" fill="url(#paint23_linear)"/>
</g>
<mask id="mask12" style="mask-type:alpha" maskUnits="userSpaceOnUse" x="5" y="104" width="12" height="11">
<path d="M10.7905 115C13.6781 115 16.0189 112.666 16.0189 109.788C16.0189 106.909 13.6781 104.575 10.7905 104.575C7.90297 104.575 5.56213 106.909 5.56213 109.788C5.56213 112.666 7.90297 115 10.7905 115Z" fill="url(#paint24_linear)"/>
</mask>
<g mask="url(#mask12)">
<path d="M10.7905 115C13.6781 115 16.0189 112.666 16.0189 109.788C16.0189 106.909 13.6781 104.575 10.7905 104.575C7.90297 104.575 5.56213 106.909 5.56213 109.788C5.56213 112.666 7.90297 115 10.7905 115Z" fill="url(#paint25_linear)"/>
</g>
<mask id="mask13" style="mask-type:alpha" maskUnits="userSpaceOnUse" x="35" y="104" width="12" height="11">
<path d="M41.0717 115C43.9592 115 46.3 112.666 46.3 109.788C46.3 106.909 43.9592 104.575 41.0717 104.575C38.1841 104.575 35.8433 106.909 35.8433 109.788C35.8433 112.666 38.1841 115 41.0717 115Z" fill="url(#paint26_linear)"/>
</mask>
<g mask="url(#mask13)">
<path d="M41.0717 115C43.9592 115 46.3 112.666 46.3 109.788C46.3 106.909 43.9592 104.575 41.0717 104.575C38.1841 104.575 35.8433 106.909 35.8433 109.788C35.8433 112.666 38.1841 115 41.0717 115Z" fill="url(#paint27_linear)"/>
</g>
<mask id="mask14" style="mask-type:alpha" maskUnits="userSpaceOnUse" x="66" y="104" width="11" height="11">
<path d="M71.3526 115C74.2402 115 76.581 112.666 76.581 109.788C76.581 106.909 74.2402 104.575 71.3526 104.575C68.4651 104.575 66.1243 106.909 66.1243 109.788C66.1243 112.666 68.4651 115 71.3526 115Z" fill="url(#paint28_linear)"/>
</mask>
<g mask="url(#mask14)">
<path d="M71.3526 115C74.2402 115 76.581 112.666 76.581 109.788C76.581 106.909 74.2402 104.575 71.3526 104.575C68.4651 104.575 66.1243 106.909 66.1243 109.788C66.1243 112.666 68.4651 115 71.3526 115Z" fill="url(#paint29_linear)"/>
</g>
</g>
<defs>
<linearGradient id="paint0_linear" x1="5.56213" y1="5.21248" x2="16.0189" y2="5.21248" gradientUnits="userSpaceOnUse">
<stop stop-color="#558FE7"/>
<stop offset="1" stop-color="#558FE7"/>
</linearGradient>
<linearGradient id="paint1_linear" x1="5.56213" y1="5.21248" x2="16.0189" y2="5.21248" gradientUnits="userSpaceOnUse">
<stop stop-color="#558FE7"/>
<stop offset="1" stop-color="#558FE7"/>
</linearGradient>
<linearGradient id="paint2_linear" x1="35.8433" y1="5.21248" x2="46.3" y2="5.21248" gradientUnits="userSpaceOnUse">
<stop stop-color="#558FE7"/>
<stop offset="1" stop-color="#558FE7"/>
</linearGradient>
<linearGradient id="paint3_linear" x1="35.8433" y1="5.21248" x2="46.3" y2="5.21248" gradientUnits="userSpaceOnUse">
<stop stop-color="#558FE7"/>
<stop offset="1" stop-color="#558FE7"/>
</linearGradient>
<linearGradient id="paint4_linear" x1="66.1243" y1="5.21248" x2="76.581" y2="5.21248" gradientUnits="userSpaceOnUse">
<stop stop-color="#558FE7"/>
<stop offset="1" stop-color="#558FE7"/>
</linearGradient>
<linearGradient id="paint5_linear" x1="66.1243" y1="5.21248" x2="76.581" y2="5.21248" gradientUnits="userSpaceOnUse">
<stop stop-color="#558FE7"/>
<stop offset="1" stop-color="#558FE7"/>
</linearGradient>
<linearGradient id="paint6_linear" x1="5.56213" y1="31.3834" x2="16.0189" y2="31.3834" gradientUnits="userSpaceOnUse">
<stop stop-color="#558FE7"/>
<stop offset="1" stop-color="#558FE7"/>
</linearGradient>
<linearGradient id="paint7_linear" x1="5.56213" y1="31.3834" x2="16.0189" y2="31.3834" gradientUnits="userSpaceOnUse">
<stop stop-color="#558FE7"/>
<stop offset="1" stop-color="#558FE7"/>
</linearGradient>
<linearGradient id="paint8_linear" x1="35.8433" y1="31.3834" x2="46.3" y2="31.3834" gradientUnits="userSpaceOnUse">
<stop stop-color="#558FE7"/>
<stop offset="1" stop-color="#558FE7"/>
</linearGradient>
<linearGradient id="paint9_linear" x1="35.8433" y1="31.3834" x2="46.3" y2="31.3834" gradientUnits="userSpaceOnUse">
<stop stop-color="#558FE7"/>
<stop offset="1" stop-color="#558FE7"/>
</linearGradient>
<linearGradient id="paint10_linear" x1="66.1243" y1="31.3834" x2="76.581" y2="31.3834" gradientUnits="userSpaceOnUse">
<stop stop-color="#558FE7"/>
<stop offset="1" stop-color="#558FE7"/>
</linearGradient>
<linearGradient id="paint11_linear" x1="66.1243" y1="31.3834" x2="76.581" y2="31.3834" gradientUnits="userSpaceOnUse">
<stop stop-color="#558FE7"/>
<stop offset="1" stop-color="#558FE7"/>
</linearGradient>
<linearGradient id="paint12_linear" x1="5.56213" y1="57.5" x2="16.0189" y2="57.5" gradientUnits="userSpaceOnUse">
<stop stop-color="#558FE7"/>
<stop offset="1" stop-color="#558FE7"/>
</linearGradient>
<linearGradient id="paint13_linear" x1="5.56213" y1="57.5" x2="16.0189" y2="57.5" gradientUnits="userSpaceOnUse">
<stop stop-color="#558FE7"/>
<stop offset="1" stop-color="#558FE7"/>
</linearGradient>
<linearGradient id="paint14_linear" x1="35.8433" y1="57.5" x2="46.3" y2="57.5" gradientUnits="userSpaceOnUse">
<stop stop-color="#558FE7"/>
<stop offset="1" stop-color="#558FE7"/>
</linearGradient>
<linearGradient id="paint15_linear" x1="35.8433" y1="57.5" x2="46.3" y2="57.5" gradientUnits="userSpaceOnUse">
<stop stop-color="#558FE7"/>
<stop offset="1" stop-color="#558FE7"/>
</linearGradient>
<linearGradient id="paint16_linear" x1="66.1243" y1="57.5" x2="76.581" y2="57.5" gradientUnits="userSpaceOnUse">
<stop stop-color="#558FE7"/>
<stop offset="1" stop-color="#558FE7"/>
</linearGradient>
<linearGradient id="paint17_linear" x1="66.1243" y1="57.5" x2="76.581" y2="57.5" gradientUnits="userSpaceOnUse">
<stop stop-color="#558FE7"/>
<stop offset="1" stop-color="#558FE7"/>
</linearGradient>
<linearGradient id="paint18_linear" x1="5.56213" y1="83.6709" x2="16.0189" y2="83.6709" gradientUnits="userSpaceOnUse">
<stop stop-color="#558FE7"/>
<stop offset="1" stop-color="#558FE7"/>
</linearGradient>
<linearGradient id="paint19_linear" x1="5.56213" y1="83.6709" x2="16.0189" y2="83.6709" gradientUnits="userSpaceOnUse">
<stop stop-color="#558FE7"/>
<stop offset="1" stop-color="#558FE7"/>
</linearGradient>
<linearGradient id="paint20_linear" x1="35.8433" y1="83.6709" x2="46.3" y2="83.6709" gradientUnits="userSpaceOnUse">
<stop stop-color="#558FE7"/>
<stop offset="1" stop-color="#558FE7"/>
</linearGradient>
<linearGradient id="paint21_linear" x1="35.8433" y1="83.6709" x2="46.3" y2="83.6709" gradientUnits="userSpaceOnUse">
<stop stop-color="#558FE7"/>
<stop offset="1" stop-color="#558FE7"/>
</linearGradient>
<linearGradient id="paint22_linear" x1="66.1243" y1="83.6709" x2="76.581" y2="83.6709" gradientUnits="userSpaceOnUse">
<stop stop-color="#558FE7"/>
<stop offset="1" stop-color="#558FE7"/>
</linearGradient>
<linearGradient id="paint23_linear" x1="66.1243" y1="83.6709" x2="76.581" y2="83.6709" gradientUnits="userSpaceOnUse">
<stop stop-color="#558FE7"/>
<stop offset="1" stop-color="#558FE7"/>
</linearGradient>
<linearGradient id="paint24_linear" x1="5.56213" y1="109.788" x2="16.0189" y2="109.788" gradientUnits="userSpaceOnUse">
<stop stop-color="#558FE7"/>
<stop offset="1" stop-color="#558FE7"/>
</linearGradient>
<linearGradient id="paint25_linear" x1="5.56213" y1="109.788" x2="16.0189" y2="109.788" gradientUnits="userSpaceOnUse">
<stop stop-color="#558FE7"/>
<stop offset="1" stop-color="#558FE7"/>
</linearGradient>
<linearGradient id="paint26_linear" x1="35.8433" y1="109.788" x2="46.3" y2="109.788" gradientUnits="userSpaceOnUse">
<stop stop-color="#558FE7"/>
<stop offset="1" stop-color="#558FE7"/>
</linearGradient>
<linearGradient id="paint27_linear" x1="35.8433" y1="109.788" x2="46.3" y2="109.788" gradientUnits="userSpaceOnUse">
<stop stop-color="#558FE7"/>
<stop offset="1" stop-color="#558FE7"/>
</linearGradient>
<linearGradient id="paint28_linear" x1="66.1243" y1="109.788" x2="76.581" y2="109.788" gradientUnits="userSpaceOnUse">
<stop stop-color="#558FE7"/>
<stop offset="1" stop-color="#558FE7"/>
</linearGradient>
<linearGradient id="paint29_linear" x1="66.1243" y1="109.788" x2="76.581" y2="109.788" gradientUnits="userSpaceOnUse">
<stop stop-color="#558FE7"/>
<stop offset="1" stop-color="#558FE7"/>
</linearGradient>
</defs>
</svg>
