<svg width="148" height="30" viewBox="0 0 148 30" fill="none" xmlns="http://www.w3.org/2000/svg">
<path fill-rule="evenodd" clip-rule="evenodd" d="M23.6559 5.44116C20.8617 1.91184 16.5973 0 12.1856 0C7.62679 0 3.50951 1.91184 0.715332 5.44116L1.74485 6.32349C4.39184 3.23495 8.06834 1.47029 12.1856 1.47029C16.1565 1.47029 19.9802 3.23495 22.48 6.32349L23.6559 5.44116ZM11.0089 29.56L9.68582 15.0004H14.6854L13.2151 29.56H11.0089ZM13.9503 11.4711C13.9503 12.5006 13.068 13.3829 12.1856 13.3829C11.1569 13.3829 10.421 12.5006 10.421 11.4711C10.421 10.5887 11.1561 9.70641 12.1856 9.70641C13.068 9.70641 13.9503 10.5887 13.9503 11.4711ZM25.127 10.7359L27.6268 20.148C27.9204 21.4703 28.0676 22.2062 28.2147 23.2349C28.3619 22.2062 28.6555 21.1767 28.9499 20.148L31.4497 10.7359H36.3029L38.0676 29.5592H34.2439L33.6559 19.5592C33.5087 18.3833 33.5087 17.353 33.5087 16.3235L32.7736 19.2656L29.8322 29.5592H26.4501L23.8031 19.7056C23.5095 18.8233 23.2151 17.3522 23.068 16.3235C23.068 17.501 23.068 18.5297 22.9208 19.7056L22.3328 29.5592H18.5091L20.2738 10.7359H25.127ZM49.3915 19.2656C48.6563 18.5305 47.9212 18.2369 47.186 18.2369C45.5678 18.2369 44.8326 19.5592 44.8326 22.795C44.8326 24.706 45.1262 25.7355 45.5678 26.3243C46.0093 26.913 46.5973 27.2066 47.186 27.2066C48.0683 27.2066 48.8035 26.7666 49.6858 26.0307L49.9794 25.8835L51.5969 28.0882C51.0089 28.5297 50.8617 28.8233 50.2738 29.1169C49.3915 29.7056 48.2148 29.9992 46.8916 29.9992C43.068 29.9992 40.8625 27.3522 40.8625 22.7942C40.8625 19.5584 42.0384 17.3522 43.6559 16.3227C44.6854 15.7355 46.0093 15.294 47.186 15.294C48.0683 15.294 49.0971 15.4412 49.833 15.8827C50.421 16.1763 50.5682 16.3227 51.1561 16.9115L49.3915 19.2656ZM58.3619 10.7359V19.2656L63.8031 10.7359H68.5091L62.48 19.4128L69.2443 29.56H64.2447L58.3619 19.7064V29.56H54.5382V10.7359H58.3619ZM73.9503 21.1775V21.0303C73.9503 19.1192 74.6847 18.0882 76.1557 18.0882C76.8909 18.0882 77.3332 18.3833 77.6268 18.8233C78.0668 19.412 78.0668 19.852 78.0668 21.0295V21.1767H73.9503V21.1775ZM80.2738 25.8835C79.2451 26.7658 78.0676 27.353 76.7445 27.353C74.9798 27.353 73.8031 26.0307 73.8031 23.9709V23.8237H81.892V22.9414C81.892 20.0008 81.3033 18.0882 80.1274 16.9122C79.0986 15.8835 77.6276 15.4412 76.0093 15.4412C74.2447 15.4412 72.7744 16.0299 71.5977 17.2058C70.421 18.6769 69.833 20.2944 69.833 22.795C69.833 27.2066 72.48 30 76.4517 30C78.5099 30 80.1274 29.4128 81.7456 28.0889L80.2738 25.8835ZM94.0967 19.1192C92.6272 18.3841 91.7449 18.0889 90.7146 18.0889C89.5386 18.0889 88.8035 18.5305 88.8035 19.4128C88.8035 20.148 89.3922 20.4416 90.5682 20.8839L92.3328 21.3239C93.9503 21.7654 94.539 22.2062 95.1278 22.795C95.5678 23.5301 95.8621 24.266 95.8621 25.1484C95.8621 28.0889 93.5103 30 89.833 30C88.2155 30 86.3037 29.56 84.2454 28.3825L85.5678 25.7355C86.5965 26.4707 88.6563 27.353 90.1274 27.353C91.1561 27.353 92.0385 26.6179 92.0385 25.7355C92.0385 24.8532 91.3033 24.266 89.8322 24.1181L88.2148 23.8245C87.3324 23.5309 86.1565 22.9421 85.715 22.3534C85.1278 21.7662 84.8326 20.7359 84.8326 19.8536C84.8326 17.0602 87.0388 15.2955 90.2746 15.2955C92.4792 15.2955 93.9503 16.0307 95.275 16.6194L94.0967 19.1192ZM107.627 19.1192C106.304 18.3841 105.275 18.0889 104.245 18.0889C103.216 18.0889 102.48 18.5305 102.48 19.4128C102.48 20.148 102.922 20.4416 104.245 20.8839L105.862 21.3239C107.627 21.7654 108.216 22.2062 108.656 22.795C109.244 23.5301 109.391 24.266 109.391 25.1484C109.391 28.0889 107.037 30 103.508 30C101.743 30 99.8322 29.56 97.774 28.3825L99.0963 25.7355C100.272 26.4707 102.185 27.353 103.803 27.353C104.832 27.353 105.568 26.6179 105.568 25.7355C105.568 24.8532 104.979 24.266 103.508 24.1181L101.743 23.8245C100.861 23.5309 99.685 22.9421 99.2435 22.3534C98.8035 21.7662 98.5091 20.7359 98.5091 19.8536C98.5091 17.0602 100.567 15.2955 103.803 15.2955C106.155 15.2955 107.626 16.0307 108.803 16.6194L107.627 19.1192ZM118.068 18.0882C118.656 18.0882 119.245 18.3833 119.539 18.8233C120.127 19.412 120.274 20.7344 120.274 22.5006C120.274 25.8827 119.685 27.3522 118.068 27.3522C117.333 27.3522 116.598 26.9122 116.157 26.1763C115.863 25.4412 115.717 24.2652 115.717 22.647C115.717 21.1759 115.864 20.2936 116.157 19.5584C116.451 18.6769 117.185 18.0882 118.068 18.0882ZM117.92 15.4412C114.245 15.4412 111.744 18.3833 111.744 22.6478C111.744 27.0594 114.097 29.8528 117.92 29.8528C120.127 29.8528 121.45 29.1177 122.48 27.9417C123.802 26.6179 124.245 24.9996 124.245 22.6478C124.245 20.2944 123.803 18.8233 122.627 17.501C121.45 16.0299 119.98 15.4412 117.92 15.4412ZM130.274 15.2948C130.567 15.8835 130.714 16.4707 130.714 17.0594C131.303 16.6194 131.744 16.3243 132.331 16.0307C133.066 15.5891 134.096 15.4419 134.831 15.4419C136.449 15.4419 137.773 16.1771 138.213 17.5018C138.36 17.9417 138.508 18.5305 138.508 19.4128V29.56H134.831V20.5887C134.831 18.9713 134.684 18.5305 133.655 18.5305C132.92 18.5305 132.038 18.9705 131.155 19.7064V29.56H127.48V19.56C127.48 18.3841 127.332 17.2066 127.038 16.1779L130.274 15.2948ZM143.509 12.9421C143.362 12.6478 143.069 12.3542 142.48 12.3542C142.04 12.3542 141.893 12.5014 141.598 12.6478C141.45 12.795 141.45 12.9421 141.45 13.0885C141.45 13.3829 141.45 13.5301 141.598 13.6773C141.745 13.8245 141.893 13.8245 142.333 13.9709C142.626 14.1181 142.774 14.1181 142.922 14.2645C143.069 14.2645 143.069 14.4116 143.069 14.5588C143.069 14.7052 143.069 14.8524 142.922 14.8524C142.774 14.9996 142.626 14.9996 142.48 14.9996C142.04 14.9996 141.893 14.8524 141.745 14.7052H141.305C141.452 15.1468 141.745 15.294 142.481 15.294C142.776 15.294 143.07 15.1468 143.216 14.9996C143.51 14.8524 143.51 14.7052 143.51 14.5588C143.51 14.2645 143.51 14.1181 143.362 13.9709C143.215 13.8237 142.922 13.8237 142.627 13.6773C142.334 13.5301 142.187 13.5301 142.04 13.3829C141.893 13.3829 141.745 13.2357 141.745 13.0885C141.745 12.9414 141.893 12.9414 141.893 12.795C142.04 12.795 142.186 12.6478 142.48 12.6478C142.775 12.6478 142.922 12.795 143.069 12.9421H143.509ZM145.715 14.8532C145.421 14.4124 145.126 13.6773 144.686 12.5006H144.097V15.2948H144.393V12.795H144.54C144.687 13.2357 144.98 14.1181 145.422 15.2948H145.862C146.304 13.9717 146.597 13.2365 146.891 12.795V15.2948H147.186V12.5006H146.597C146.155 13.6773 145.861 14.4124 145.715 14.8532Z" fill="#393939"/>
</svg>
