<svg width="236" height="30" viewBox="0 0 236 30" fill="none" xmlns="http://www.w3.org/2000/svg">
<path d="M233.169 27.332V27.834H233.638C233.725 27.8354 233.812 27.8133 233.889 27.77C233.919 27.7484 233.944 27.7195 233.96 27.686C233.977 27.6524 233.984 27.6153 233.983 27.578C233.984 27.5413 233.976 27.5049 233.96 27.4722C233.943 27.4395 233.919 27.4115 233.889 27.391C233.813 27.3455 233.726 27.3233 233.638 27.327H233.169V27.332ZM233.643 26.9769C233.843 26.9645 234.042 27.0222 234.205 27.14C234.27 27.1935 234.322 27.2615 234.356 27.3387C234.39 27.4158 234.406 27.4999 234.402 27.5842C234.405 27.6568 234.392 27.7292 234.365 27.7965C234.338 27.8638 234.296 27.9245 234.244 27.9745C234.118 28.0837 233.96 28.1493 233.794 28.1615L234.422 28.8768H233.939L233.361 28.1665H233.174V28.8768H232.77V26.9781H233.649L233.643 26.9769ZM233.517 29.5319C233.729 29.5339 233.939 29.4911 234.133 29.4064C234.321 29.3257 234.491 29.2103 234.635 29.0663C234.78 28.9224 234.895 28.752 234.975 28.5643C235.14 28.1666 235.14 27.7197 234.975 27.322C234.894 27.1349 234.779 26.9647 234.635 26.82C234.491 26.676 234.32 26.5606 234.133 26.4799C233.938 26.3998 233.728 26.3597 233.517 26.362C233.302 26.36 233.089 26.4 232.89 26.4799C232.698 26.559 232.524 26.6745 232.376 26.82C232.154 27.0477 232.004 27.3357 231.945 27.6481C231.885 27.9604 231.919 28.2834 232.041 28.5769C232.118 28.7652 232.232 28.936 232.376 29.0788C232.524 29.2242 232.698 29.3397 232.89 29.4189C233.088 29.5036 233.301 29.5463 233.517 29.5444V29.5319ZM233.517 25.9052C234.069 25.9046 234.598 26.121 234.992 26.5075C235.181 26.6931 235.332 26.9145 235.436 27.1588C235.543 27.4097 235.598 27.6797 235.598 27.9525C235.598 28.2254 235.543 28.4954 235.436 28.7463C235.33 28.9893 235.179 29.2102 234.992 29.3976C234.799 29.5822 234.575 29.7309 234.33 29.8368C234.073 29.946 233.796 30.0016 233.517 29.9999C233.234 30.002 232.954 29.9465 232.694 29.8368C232.446 29.7334 232.22 29.5844 232.027 29.3976C231.84 29.2033 231.691 28.975 231.59 28.7249C231.482 28.4741 231.427 28.2041 231.427 27.9312C231.427 27.6584 231.482 27.3884 231.59 27.1375C231.693 26.8932 231.844 26.6718 232.034 26.4862C232.224 26.2961 232.451 26.1467 232.7 26.047C232.961 25.9373 233.241 25.8818 233.523 25.8838L233.517 25.9052ZM41.3648 18.5727C41.3648 14.9523 43.7366 11.9781 47.6131 11.9781C51.3176 11.9781 53.8173 14.8243 53.8173 18.5727C53.8173 22.3211 51.3176 25.1673 47.6131 25.1673C43.7366 25.1673 41.3648 22.1931 41.3648 18.5727ZM58.0401 18.5727V8.26988H53.5613V10.7797C52.1408 8.92494 49.9861 7.76163 47.0559 7.76163C41.2833 7.76163 36.753 12.2894 36.753 18.5777C36.753 24.8661 41.2808 29.3938 47.0559 29.3938C49.9848 29.3938 52.1408 28.2293 53.5613 26.3758V28.8768H58.0351V18.5727H58.0401ZM209.373 18.5727C209.373 14.9523 211.744 11.9781 215.622 11.9781C219.33 11.9781 221.826 14.8243 221.826 18.5727C221.826 22.3211 219.33 25.1673 215.622 25.1673C211.746 25.1673 209.373 22.1931 209.373 18.5727ZM226.053 18.5727V0H221.57V10.7797C220.15 8.92494 217.995 7.76163 215.065 7.76163C209.292 7.76163 204.762 12.2894 204.762 18.5777C204.762 24.8661 209.29 29.3938 215.065 29.3938C217.995 29.3938 220.15 28.2293 221.57 26.3758V28.8768H226.053V18.5727ZM113.628 11.7661C116.514 11.7661 118.368 13.5757 118.841 16.7619H108.154C108.632 13.7877 110.438 11.7661 113.629 11.7661H113.628ZM113.718 7.75034C107.682 7.75034 103.459 12.1425 103.459 18.5664C103.459 25.1158 107.851 29.3825 114.018 29.3825C117.12 29.3825 119.961 28.6082 122.461 26.4962L120.266 23.177C118.539 24.5574 116.341 25.3317 114.274 25.3317C111.388 25.3317 108.76 23.9952 108.114 20.2869H123.407C123.451 19.7297 123.496 19.1675 123.496 18.5652C123.451 12.1438 119.481 7.74908 113.716 7.74908L113.718 7.75034ZM167.79 18.5652C167.79 14.9448 170.162 11.9706 174.038 11.9706C177.742 11.9706 180.242 14.8168 180.242 18.5652C180.242 22.3136 177.742 25.1597 174.038 25.1597C170.162 25.1597 167.789 22.1856 167.789 18.5652H167.79ZM184.464 18.5652V8.26988H179.988V10.7797C178.562 8.92494 176.412 7.76163 173.482 7.76163C167.709 7.76163 163.179 12.2894 163.179 18.5777C163.179 24.8661 167.707 29.3938 173.482 29.3938C176.412 29.3938 178.562 28.2293 179.988 26.3758V28.8768H184.465V18.5727L184.464 18.5652ZM142.497 18.5652C142.497 24.8134 146.847 29.3813 153.485 29.3813C156.587 29.3813 158.654 28.6911 160.889 26.9254L158.738 23.305C157.056 24.5135 155.291 25.1597 153.342 25.1597C149.767 25.1158 147.138 22.5307 147.138 18.5652C147.138 14.5997 149.767 12.0158 153.342 11.9706C155.286 11.9706 157.051 12.6169 158.738 13.8254L160.889 10.205C158.65 8.43929 156.583 7.74908 153.485 7.74908C146.847 7.74908 142.497 12.3157 142.497 18.5652ZM200.236 7.74908C197.652 7.74908 195.969 8.95757 194.806 10.7672V8.26988H190.367V28.8655H194.851V17.3203C194.851 13.912 196.315 12.0183 199.243 12.0183C200.202 12.0045 201.154 12.1806 202.044 12.5366L203.424 8.31505C202.433 7.92477 201.14 7.75285 200.233 7.75285L200.236 7.74908ZM80.1831 9.90754C78.0284 8.48698 75.0592 7.75285 71.7839 7.75285C66.566 7.75285 63.2066 10.2539 63.2066 14.3462C63.2066 17.7043 65.7076 19.7762 70.3132 20.4224L72.429 20.7236C74.8848 21.0687 76.0444 21.715 76.0444 22.8783C76.0444 24.4708 74.413 25.3793 71.3497 25.3793C68.2476 25.3793 66.0088 24.388 64.4992 23.2247L62.3947 26.7171C64.8505 28.5267 67.9527 29.3901 71.3121 29.3901C77.2604 29.3901 80.7076 26.5891 80.7076 22.6675C80.7076 19.0471 77.9945 17.1534 73.5119 16.5071L71.4012 16.2009C69.4623 15.9499 67.9088 15.5597 67.9088 14.1793C67.9088 12.6734 69.3732 11.7673 71.8304 11.7673C74.4594 11.7673 77.0044 12.7587 78.2517 13.533L80.1906 9.91255L80.1831 9.90754ZM137.973 7.75662C135.389 7.75662 133.706 8.96509 132.548 10.7747V8.26988H128.109V28.8655H132.588V17.3203C132.588 13.912 134.053 12.0183 136.98 12.0183C137.939 12.0045 138.891 12.1806 139.781 12.5366L141.162 8.31505C140.17 7.92477 138.878 7.75285 137.971 7.75285L137.973 7.75662ZM99.7534 8.26988H92.4298V2.02166H87.902V8.26988H83.7244V12.3634H87.902V21.7589C87.902 26.5376 89.7568 29.3838 95.055 29.3838C96.9989 29.3838 99.2377 28.7814 100.658 27.7913L99.3644 23.9563C98.0279 24.7306 96.5634 25.1208 95.3989 25.1208C93.1601 25.1208 92.4298 23.7404 92.4298 21.6736V12.3672H99.7534V8.26988ZM32.7925 28.8705V15.9449C32.7925 11.0771 29.6904 7.8018 24.6896 7.75788C22.0605 7.71396 19.3487 8.53215 17.45 11.4222C16.0294 9.13828 13.7907 7.75788 10.6433 7.75788C8.44347 7.75788 6.2938 8.40416 4.61097 10.8161V8.26988H0.128418V28.8655H4.6461V17.4458C4.6461 13.8706 6.62886 11.9706 9.69085 11.9706C12.665 11.9706 14.1696 13.9095 14.1696 17.4006V28.863H18.6974V17.4433C18.6974 13.868 20.7642 11.9681 23.7371 11.9681C26.7953 11.9681 28.2548 13.9069 28.2548 17.3981V28.8605L32.7925 28.8705Z" fill="#393939"/>
</svg>
