<svg width="108" height="108" viewBox="0 0 108 108" fill="none" xmlns="http://www.w3.org/2000/svg">
<g filter="url(#filter0_ddd)">
<circle cx="54" cy="38" r="30" fill="#3278E2"/>
</g>
<g filter="url(#filter1_ddd)">
<circle cx="61.8525" cy="42.3809" r="1.31836" fill="#3278E2"/>
</g>
<path d="M62.013 42.3624C62.006 42.3485 61.9917 42.3397 61.9761 42.3397H61.8937V41.9277C61.8937 41.9049 61.8753 41.8865 61.8525 41.8865C61.8297 41.8865 61.8113 41.9049 61.8113 41.9277V42.3397H61.7289C61.7133 42.3397 61.6991 42.3485 61.6921 42.3624C61.6851 42.3764 61.6866 42.3931 61.696 42.4056L61.8196 42.5704C61.8201 42.5711 61.8209 42.5713 61.8215 42.572C61.8242 42.5752 61.8274 42.5777 61.831 42.5799C61.8325 42.5808 61.8337 42.582 61.8353 42.5828C61.8405 42.5852 61.8463 42.5868 61.8525 42.5868C61.8587 42.5868 61.8645 42.5852 61.8698 42.5828C61.8714 42.582 61.8726 42.5808 61.874 42.5799C61.8776 42.5777 61.8808 42.5752 61.8836 42.572C61.8841 42.5713 61.885 42.5711 61.8855 42.5704L62.0091 42.4056C62.0185 42.3931 62.02 42.3764 62.013 42.3624Z" fill="white"/>
<path d="M62.3057 42.5045C62.2829 42.5045 62.2645 42.5229 62.2645 42.5457V42.6692C62.2645 42.7374 62.2091 42.7928 62.1409 42.7928H61.5641C61.496 42.7928 61.4406 42.7374 61.4406 42.6692V42.5457C61.4406 42.5229 61.4221 42.5045 61.3994 42.5045C61.3766 42.5045 61.3582 42.5229 61.3582 42.5457V42.6692C61.3582 42.7828 61.4506 42.8752 61.5641 42.8752H62.1409C62.2545 42.8752 62.3469 42.7828 62.3469 42.6692V42.5457C62.3469 42.5229 62.3285 42.5045 62.3057 42.5045Z" fill="white"/>
<g clip-path="url(#clip0)">
<path d="M52.5707 34.1025L54.25 33.2197L55.9292 34.1025C56.0163 34.1483 56.1145 34.1688 56.2126 34.1617C56.3108 34.1546 56.405 34.1202 56.4846 34.0624C56.5642 34.0045 56.626 33.9256 56.6631 33.8344C56.7002 33.7433 56.711 33.6436 56.6944 33.5466L56.3736 31.6767L57.7322 30.3525C57.8027 30.2838 57.8525 30.1967 57.8761 30.1012C57.8997 30.0057 57.896 29.9055 57.8656 29.8119C57.8352 29.7183 57.7793 29.6351 57.704 29.5717C57.6288 29.5083 57.5373 29.4671 57.44 29.453L55.5625 29.1802L54.7229 27.479C54.6793 27.3908 54.612 27.3165 54.5284 27.2645C54.4448 27.2126 54.3484 27.185 54.25 27.185C54.1516 27.185 54.0551 27.2126 53.9716 27.2645C53.888 27.3165 53.8206 27.3908 53.7771 27.479L52.9375 29.1802L51.06 29.453C50.9626 29.4671 50.8712 29.5083 50.7959 29.5717C50.7207 29.6351 50.6647 29.7183 50.6343 29.8119C50.6039 29.9055 50.6003 30.0057 50.6239 30.1012C50.6475 30.1967 50.6973 30.2838 50.7678 30.3525L52.1263 31.6767L51.8055 33.5466C51.7889 33.6436 51.7997 33.7433 51.8368 33.8344C51.8739 33.9256 51.9357 34.0045 52.0153 34.0624C52.0949 34.1202 52.1891 34.1546 52.2873 34.1617C52.3854 34.1688 52.4836 34.1483 52.5707 34.1025H52.5707Z" fill="white"/>
<path d="M65.1059 35.0153L63.5881 33.8771L63.6652 31.9814C63.6693 31.8831 63.6457 31.7856 63.5972 31.7C63.5486 31.6143 63.4771 31.544 63.3907 31.4969C63.3043 31.4498 63.2064 31.4278 63.1081 31.4335C63.0099 31.4391 62.9152 31.4721 62.8347 31.5288L61.2833 32.6206L59.5043 31.9614C59.412 31.9273 59.312 31.9196 59.2156 31.9393C59.1192 31.9589 59.0303 32.0052 58.9588 32.0728C58.8873 32.1404 58.8361 32.2267 58.8111 32.3218C58.7861 32.417 58.7882 32.5172 58.8172 32.6113L59.3761 34.4243L58.1995 35.9126C58.1385 35.9898 58.1003 36.0825 58.0892 36.1803C58.0781 36.278 58.0946 36.3769 58.1368 36.4658C58.179 36.5547 58.2453 36.63 58.328 36.6832C58.4108 36.7364 58.5068 36.7654 58.6052 36.7669L60.5022 36.7955L61.554 38.3745C61.6022 38.4467 61.6674 38.506 61.7439 38.547C61.8205 38.588 61.906 38.6094 61.9928 38.6094C62.0155 38.6094 62.0382 38.608 62.0608 38.6051C62.1584 38.5924 62.2505 38.5527 62.3267 38.4904C62.4029 38.4281 62.4601 38.3457 62.4919 38.2526L63.1053 36.4573L64.932 35.9449C65.0267 35.9183 65.1122 35.8657 65.1786 35.7931C65.245 35.7206 65.2898 35.6308 65.3079 35.5341C65.326 35.4374 65.3167 35.3375 65.281 35.2459C65.2453 35.1542 65.1847 35.0743 65.1059 35.0152V35.0153Z" fill="white"/>
<path d="M49.8947 36.767C49.9931 36.7655 50.0891 36.7365 50.1719 36.6833C50.2547 36.6301 50.3209 36.5548 50.3631 36.4659C50.4053 36.377 50.4218 36.2781 50.4108 36.1803C50.3997 36.0825 50.3615 35.9898 50.3004 35.9126L49.1238 34.4243L49.6828 32.6113C49.7118 32.5173 49.7139 32.417 49.6889 32.3218C49.6638 32.2267 49.6127 32.1404 49.5412 32.0728C49.4697 32.0052 49.3807 31.9589 49.2843 31.9392C49.1879 31.9196 49.0879 31.9273 48.9957 31.9614L47.2166 32.6206L45.6654 31.5288C45.5849 31.4721 45.4902 31.4391 45.3919 31.4335C45.2936 31.4278 45.1958 31.4498 45.1093 31.4969C45.0229 31.544 44.9514 31.6143 44.9029 31.7C44.8544 31.7856 44.8308 31.8831 44.8348 31.9814L44.9119 33.8771L43.3941 35.0153C43.3154 35.0743 43.2547 35.1542 43.219 35.2459C43.1834 35.3376 43.174 35.4374 43.1921 35.5342C43.2102 35.6309 43.255 35.7206 43.3214 35.7932C43.3879 35.8658 43.4733 35.9183 43.568 35.9449L45.3947 36.4574L46.008 38.2527C46.0399 38.3458 46.0971 38.4281 46.1733 38.4904C46.2494 38.5527 46.3415 38.5924 46.4391 38.6051C46.5367 38.6178 46.6359 38.6029 46.7254 38.5621C46.815 38.5214 46.8914 38.4564 46.9459 38.3745L47.9978 36.7956L49.8947 36.767Z" fill="white"/>
<path d="M60.7539 42.293C60.9878 42.293 61.215 42.2153 61.3999 42.0721C61.5847 41.9289 61.7168 41.7284 61.7754 41.502C61.7168 41.2756 61.5847 41.075 61.3999 40.9318C61.215 40.7887 60.9878 40.711 60.7539 40.7109H56.8867V38.2939C56.8867 37.6364 56.8867 36.3256 55.1618 36.1582C55.113 36.1536 55.0639 36.1593 55.0174 36.1748C54.971 36.1903 54.9283 36.2154 54.8921 36.2484C54.8559 36.2814 54.827 36.3215 54.8072 36.3663C54.7875 36.4111 54.7773 36.4596 54.7773 36.5085V38.8976C54.7773 38.9626 54.7593 39.0264 54.7252 39.0818L53.7227 40.7109H53.7666L52.3164 41.658V48.4325C52.53 48.5563 52.7726 48.6214 53.0195 48.6211H60.0508C60.2846 48.6211 60.5118 48.5434 60.6967 48.4002C60.8816 48.257 61.0137 48.0565 61.0722 47.8301C61.0137 47.6037 60.8816 47.4031 60.6967 47.26C60.5118 47.1168 60.2846 47.0391 60.0508 47.0391H58.9961V46.5117H60.4023C60.6362 46.5117 60.8634 46.434 61.0483 46.2908C61.2332 46.1477 61.3653 45.9471 61.4238 45.7207C61.3653 45.4943 61.2332 45.2938 61.0483 45.1506C60.8634 45.0074 60.6362 44.9297 60.4023 44.9297H58.9961V44.4024H60.7539C60.9878 44.4023 61.215 44.3246 61.3999 44.1815C61.5847 44.0383 61.7168 43.8377 61.7754 43.6113C61.7168 43.3849 61.5847 43.1844 61.3999 43.0412C61.215 42.898 60.9878 42.8203 60.7539 42.8203H58.9961V42.293H60.7539Z" fill="white"/>
<path d="M51.2617 40.7109H47.7461C47.6062 40.7109 47.4721 40.7665 47.3732 40.8654C47.2743 40.9643 47.2188 41.0984 47.2188 41.2383V48.6211C47.2188 48.761 47.2743 48.8951 47.3732 48.994C47.4721 49.0929 47.6062 49.1484 47.7461 49.1484H51.2617C51.4016 49.1484 51.5357 49.0929 51.6346 48.994C51.7335 48.8951 51.7891 48.761 51.7891 48.6211V41.2383C51.7891 41.0984 51.7335 40.9643 51.6346 40.8654C51.5357 40.7665 51.4016 40.7109 51.2617 40.7109V40.7109ZM49.5039 48.3135C49.3996 48.3135 49.2977 48.2825 49.2109 48.2246C49.1242 48.1667 49.0566 48.0843 49.0167 47.9879C48.9768 47.8916 48.9663 47.7855 48.9867 47.6833C49.007 47.581 49.0573 47.487 49.131 47.4132C49.2048 47.3395 49.2987 47.2893 49.401 47.2689C49.5033 47.2486 49.6094 47.259 49.7057 47.2989C49.8021 47.3388 49.8844 47.4064 49.9424 47.4932C50.0003 47.5799 50.0313 47.6818 50.0313 47.7861C50.0313 47.926 49.9757 48.0601 49.8768 48.159C49.7779 48.2579 49.6438 48.3135 49.5039 48.3135Z" fill="white"/>
</g>
<defs>
<filter id="filter0_ddd" x="0" y="0" width="108" height="108" filterUnits="userSpaceOnUse" color-interpolation-filters="sRGB">
<feFlood flood-opacity="0" result="BackgroundImageFix"/>
<feColorMatrix in="SourceAlpha" type="matrix" values="0 0 0 0 0 0 0 0 0 0 0 0 0 0 0 0 0 0 127 0" result="hardAlpha"/>
<feOffset/>
<feGaussianBlur stdDeviation="0.5"/>
<feColorMatrix type="matrix" values="0 0 0 0 0 0 0 0 0 0 0 0 0 0 0 0 0 0 0.04 0"/>
<feBlend mode="normal" in2="BackgroundImageFix" result="effect1_dropShadow"/>
<feColorMatrix in="SourceAlpha" type="matrix" values="0 0 0 0 0 0 0 0 0 0 0 0 0 0 0 0 0 0 127 0" result="hardAlpha"/>
<feOffset dy="2"/>
<feGaussianBlur stdDeviation="3"/>
<feColorMatrix type="matrix" values="0 0 0 0 0.196078 0 0 0 0 0.470588 0 0 0 0 0.886275 0 0 0 0.12 0"/>
<feBlend mode="normal" in2="effect1_dropShadow" result="effect2_dropShadow"/>
<feColorMatrix in="SourceAlpha" type="matrix" values="0 0 0 0 0 0 0 0 0 0 0 0 0 0 0 0 0 0 127 0" result="hardAlpha"/>
<feOffset dy="16"/>
<feGaussianBlur stdDeviation="12"/>
<feColorMatrix type="matrix" values="0 0 0 0 0.196078 0 0 0 0 0.470588 0 0 0 0 0.886275 0 0 0 0.2 0"/>
<feBlend mode="normal" in2="effect2_dropShadow" result="effect3_dropShadow"/>
<feBlend mode="normal" in="SourceGraphic" in2="effect3_dropShadow" result="shape"/>
</filter>
<filter id="filter1_ddd" x="36.5342" y="33.0625" width="50.6367" height="50.6367" filterUnits="userSpaceOnUse" color-interpolation-filters="sRGB">
<feFlood flood-opacity="0" result="BackgroundImageFix"/>
<feColorMatrix in="SourceAlpha" type="matrix" values="0 0 0 0 0 0 0 0 0 0 0 0 0 0 0 0 0 0 127 0" result="hardAlpha"/>
<feOffset/>
<feGaussianBlur stdDeviation="0.5"/>
<feColorMatrix type="matrix" values="0 0 0 0 0 0 0 0 0 0 0 0 0 0 0 0 0 0 0.04 0"/>
<feBlend mode="normal" in2="BackgroundImageFix" result="effect1_dropShadow"/>
<feColorMatrix in="SourceAlpha" type="matrix" values="0 0 0 0 0 0 0 0 0 0 0 0 0 0 0 0 0 0 127 0" result="hardAlpha"/>
<feOffset dy="2"/>
<feGaussianBlur stdDeviation="3"/>
<feColorMatrix type="matrix" values="0 0 0 0 0.196078 0 0 0 0 0.470588 0 0 0 0 0.886275 0 0 0 0.12 0"/>
<feBlend mode="normal" in2="effect1_dropShadow" result="effect2_dropShadow"/>
<feColorMatrix in="SourceAlpha" type="matrix" values="0 0 0 0 0 0 0 0 0 0 0 0 0 0 0 0 0 0 127 0" result="hardAlpha"/>
<feOffset dy="16"/>
<feGaussianBlur stdDeviation="12"/>
<feColorMatrix type="matrix" values="0 0 0 0 0.196078 0 0 0 0 0.470588 0 0 0 0 0.886275 0 0 0 0.2 0"/>
<feBlend mode="normal" in2="effect2_dropShadow" result="effect3_dropShadow"/>
<feBlend mode="normal" in="SourceGraphic" in2="effect3_dropShadow" result="shape"/>
</filter>
<clipPath id="clip0">
<rect width="22.5" height="22.5" fill="white" transform="translate(43 27)"/>
</clipPath>
</defs>
</svg>
