<svg width="16" height="15" viewBox="0 0 16 15" fill="none" xmlns="http://www.w3.org/2000/svg">
<path d="M15.6116 5.66832C15.5091 5.35138 15.228 5.12627 14.8954 5.09629L10.3777 4.68608L8.59127 0.504793C8.45955 0.198358 8.15956 0 7.82626 0C7.49295 0 7.19297 0.198358 7.06124 0.505509L5.27483 4.68608L0.756411 5.09629C0.42442 5.12698 0.14402 5.35138 0.0409594 5.66832C-0.0621009 5.98526 0.0330776 6.3329 0.28422 6.55204L3.69906 9.54688L2.69211 13.9825C2.61842 14.3087 2.74501 14.6458 3.01562 14.8414C3.16107 14.9465 3.33125 15 3.50286 15C3.65082 15 3.79759 14.9601 3.92931 14.8813L7.82626 12.5522L11.7218 14.8813C12.0068 15.0528 12.3662 15.0371 12.6362 14.8414C12.9069 14.6452 13.0334 14.308 12.9597 13.9825L11.9527 9.54688L15.3676 6.55263C15.6187 6.3329 15.7146 5.98586 15.6116 5.66832Z" fill="#FFC107"/>
</svg>
