<svg width="157" height="30" viewBox="0 0 157 30" fill="none" xmlns="http://www.w3.org/2000/svg">
<path d="M151.806 17.3689C151.671 18.0438 151.435 18.6173 151.114 19.1232C150.794 19.6286 150.372 20.0341 149.833 20.3539C149.31 20.658 148.653 20.826 147.877 20.826C147.118 20.826 146.46 20.6747 145.938 20.3539C145.416 20.0488 144.972 19.6276 144.639 19.1232C144.318 18.6178 144.082 18.0438 143.931 17.3689C143.782 16.6991 143.709 16.0148 143.712 15.3286C143.712 14.6204 143.78 13.9118 143.914 13.255C144.049 12.5802 144.285 11.99 144.606 11.4841C144.926 10.9606 145.348 10.5565 145.887 10.2196C146.41 9.89878 147.067 9.73031 147.843 9.73031C148.602 9.73031 149.243 9.89878 149.765 10.2196C150.289 10.5435 150.733 10.9815 151.064 11.5008C151.402 12.0233 151.638 12.6301 151.789 13.2883C151.94 13.9627 152.008 14.6371 152.008 15.3286C152.008 16.0201 151.94 16.6945 151.806 17.3689ZM156.292 11.9224C155.971 10.7926 155.499 9.81455 154.858 8.95455C154.2 8.11168 153.391 7.41969 152.413 6.91425C151.434 6.40834 150.255 6.13849 148.889 6.13849C147.809 6.13849 146.831 6.3579 145.938 6.77957C145.043 7.20124 144.301 7.89228 143.728 8.81986H143.661V6.61061H139.141V30H143.897V21.7869H143.964C144.524 22.6121 145.292 23.2752 146.19 23.7097C147.101 24.148 148.079 24.3674 149.158 24.3674C150.423 24.3674 151.536 24.1147 152.497 23.6254C153.425 23.1502 154.237 22.4765 154.875 21.6523C155.516 20.826 155.988 19.8813 156.292 18.8024C156.613 17.723 156.764 16.6108 156.764 15.4467C156.764 14.2159 156.613 13.0356 156.292 11.9053V11.9224ZM132.835 17.3689C132.7 18.0438 132.464 18.6173 132.143 19.1232C131.822 19.6291 131.401 20.0341 130.862 20.3539C130.339 20.658 129.681 20.826 128.906 20.826C128.146 20.826 127.506 20.6747 126.966 20.3539C126.445 20.0485 126 19.6274 125.667 19.1232C125.348 18.6178 125.111 18.0438 124.96 17.3689C124.811 16.6992 124.737 16.0148 124.741 15.3286C124.741 14.6204 124.808 13.9118 124.942 13.255C125.078 12.5802 125.313 11.99 125.634 11.4841C125.955 10.9606 126.376 10.5565 126.916 10.2196C127.438 9.89878 128.096 9.73031 128.871 9.73031C129.631 9.73031 130.271 9.89878 130.794 10.2196C131.318 10.5434 131.762 10.9814 132.092 11.5008C132.43 12.0233 132.666 12.6301 132.818 13.2883C132.969 13.9627 133.037 14.6371 133.037 15.3286C133.037 16.0201 132.969 16.6945 132.835 17.3689ZM135.886 8.95455C135.246 8.11168 134.42 7.41969 133.442 6.91425C132.464 6.40834 131.283 6.13849 129.917 6.13849C128.837 6.13849 127.86 6.3579 126.966 6.77957C126.072 7.20124 125.33 7.89228 124.757 8.81986H124.689V6.61061H120.169V30H124.925V21.7869H124.993C125.554 22.6121 126.321 23.2752 127.219 23.7097C128.129 24.148 129.107 24.3674 130.186 24.3674C131.468 24.3674 132.564 24.1147 133.526 23.6254C134.454 23.1499 135.265 22.4763 135.903 21.6523C136.545 20.826 137.017 19.8813 137.338 18.8024C137.649 17.7109 137.808 16.5816 137.81 15.4467C137.81 14.2159 137.657 13.0356 137.338 11.9053C137.017 10.7759 136.545 9.79741 135.886 8.93789V8.95455ZM104.588 14.688L107.707 5.90196H107.775L110.794 14.688H104.588ZM105.094 0L96.0381 23.9286H101.333L103.206 18.6001H112.16L113.964 23.9286H119.427L110.473 0H105.077H105.094ZM95.6502 16.3404C95.3294 15.8007 94.9249 15.3286 94.4023 14.9579C93.8964 14.5871 93.3058 14.2997 92.6481 14.0641C91.9817 13.8452 91.3066 13.654 90.6244 13.4911C89.95 13.3388 89.2923 13.187 88.6512 13.0523C88.0102 12.9176 87.42 12.7653 86.9312 12.5968C86.4258 12.4283 86.0208 12.2094 85.7171 11.9391C85.3964 11.6692 85.245 11.3323 85.245 10.8939C85.245 10.5399 85.3293 10.2529 85.5144 10.0335C85.7 9.81455 85.9194 9.66273 86.1721 9.5447C86.4253 9.42667 86.7118 9.35909 87.0326 9.32577C87.3237 9.29354 87.6164 9.2767 87.9093 9.27532C88.7526 9.27532 89.4946 9.4438 90.119 9.7641C90.7429 10.0844 91.097 10.7083 91.1475 11.6188H95.6668C95.5821 10.5394 95.2961 9.66273 94.8406 8.95407C94.3852 8.24542 93.8122 7.68954 93.1206 7.26787C92.4291 6.8462 91.6367 6.54303 90.7596 6.35742C89.8829 6.17181 88.972 6.08757 88.0278 6.08757C87.084 6.08757 86.1731 6.17228 85.2793 6.34028C84.3855 6.50876 83.5764 6.79575 82.8682 7.21742C82.1434 7.63909 81.5695 8.19592 81.1483 8.90362C80.7094 9.6118 80.4905 10.5399 80.4905 11.6521C80.4905 12.4112 80.6419 13.0518 80.9626 13.5744C81.2663 14.0979 81.6875 14.5357 82.1934 14.8898C82.7164 15.2273 83.2899 15.5142 83.9476 15.7332C84.6054 15.9521 85.2798 16.1382 85.9713 16.2895C87.6746 16.6436 88.9901 16.9977 89.951 17.3518C90.8952 17.7059 91.3678 18.2456 91.3678 18.9538C91.3678 19.3754 91.2664 19.7295 91.0642 20.016C90.8662 20.296 90.6064 20.5267 90.3051 20.6904C90.0014 20.8589 89.664 20.9774 89.2932 21.0612C88.9447 21.1404 88.5884 21.18 88.231 21.1792C87.7589 21.1792 87.3034 21.1292 86.8817 21.0107C86.4434 20.8927 86.0555 20.7232 85.7186 20.4877C85.3811 20.2516 85.1113 19.948 84.8924 19.5772C84.673 19.2065 84.5716 18.7677 84.5716 18.2618H80.0522C80.1026 19.4249 80.3563 20.3863 80.8451 21.1621C81.3172 21.9383 81.9411 22.5451 82.6831 23.0172C83.4251 23.4893 84.2851 23.8263 85.2465 24.0286C86.2078 24.2313 87.1854 24.3327 88.1972 24.3327C89.1757 24.3327 90.1532 24.2313 91.098 24.0452C92.0422 23.8601 92.8855 23.5226 93.6275 23.0505C94.3695 22.5784 94.9596 21.9545 95.4151 21.1954C95.8701 20.4201 96.1061 19.4758 96.1061 18.3289C96.1061 17.5198 95.9548 16.8454 95.634 16.3052L95.6502 16.3404ZM75.9702 1.41683H71.2147V6.61061H68.3306V9.79741H71.2147V20.017C71.2147 20.8941 71.3661 21.5856 71.653 22.1248C71.94 22.665 72.3446 23.0691 72.8505 23.3732C73.3564 23.6597 73.9304 23.862 74.5876 23.9634C75.2799 24.0664 75.9789 24.117 76.6788 24.1147C77.1509 24.1147 77.6231 24.098 78.129 24.0814C78.5755 24.0663 79.0206 24.0211 79.4611 23.9462V20.253C79.2283 20.3055 78.9916 20.3393 78.7534 20.3539C78.4953 20.3741 78.2365 20.3854 77.9776 20.3877C77.1681 20.3877 76.645 20.253 76.3757 19.9827C76.1058 19.7133 75.9707 19.1732 75.9707 18.3812V9.79741H79.4611V6.61061H75.9707V1.41683H75.9702ZM62.3273 17.2342C62.3273 17.5036 62.294 17.8582 62.243 18.3136C62.1862 18.7795 62.031 19.2279 61.7876 19.6291C61.5349 20.0679 61.1636 20.4386 60.6411 20.7594C60.1356 21.0792 59.3932 21.2315 58.4661 21.2315C58.0949 21.2315 57.7236 21.1973 57.3529 21.1302C56.9988 21.0621 56.6785 20.9441 56.4087 20.7761C56.1388 20.6071 55.9365 20.3882 55.7676 20.0846C55.6162 19.798 55.5315 19.444 55.5315 19.0052C55.5315 18.5497 55.6162 18.1956 55.7676 17.8924C55.9194 17.605 56.1383 17.3689 56.392 17.1671C56.6447 16.9815 56.9484 16.8302 57.3025 16.7121C57.6565 16.5941 57.994 16.5094 58.3647 16.4418C58.7455 16.3763 59.1277 16.3201 59.5112 16.2733C59.8991 16.2229 60.2537 16.172 60.6078 16.1049C60.9619 16.0378 61.2822 15.953 61.5858 15.8521C61.8894 15.7512 62.1421 15.6161 62.3449 15.4305V17.2014L62.3273 17.2342ZM67.0827 20.0841V11.0619C67.0827 10.0168 66.8467 9.17347 66.375 8.53288C65.9029 7.8918 65.2952 7.40303 64.5703 7.04894C63.8284 6.69485 63.0188 6.45879 62.125 6.3241C61.2477 6.20419 60.3634 6.14218 59.4779 6.13849C58.5161 6.13849 57.5552 6.23986 56.6109 6.42548C55.6672 6.61109 54.8067 6.93091 54.0476 7.38685C53.3004 7.83145 52.6611 8.43629 52.1758 9.15777C51.687 9.89974 51.4 10.8268 51.3329 11.94H56.0884C56.1726 10.9963 56.4929 10.3385 57.0321 9.93353C57.5723 9.52851 58.2971 9.32672 59.2418 9.32672C59.6635 9.32672 60.0676 9.36004 60.4393 9.41096C60.7847 9.45636 61.1174 9.57114 61.4173 9.74839C61.7043 9.91687 61.9232 10.1529 62.0922 10.4566C62.2607 10.7602 62.3449 11.1643 62.3449 11.6873C62.3615 12.1761 62.2269 12.5478 61.9061 12.8172C61.5858 13.0699 61.1641 13.2726 60.6249 13.4073C60.0857 13.542 59.4784 13.6434 58.7869 13.711C58.0953 13.7785 57.3872 13.8628 56.679 13.9808C55.9708 14.0988 55.2622 14.2502 54.554 14.4358C53.8458 14.6214 53.2214 14.9079 52.6817 15.2963C52.1253 15.6837 51.687 16.1896 51.3329 16.8135C50.9788 17.4546 50.8099 18.2641 50.8099 19.2422C50.8099 20.136 50.9612 20.9117 51.2653 21.5523C51.55 22.1769 51.9774 22.7258 52.5132 23.1548C53.0701 23.5878 53.7058 23.9085 54.385 24.099C55.0932 24.3013 55.869 24.4022 56.6952 24.4022C57.7746 24.4022 58.8202 24.2508 59.8487 23.93C60.8659 23.6195 61.7883 23.057 62.53 22.2948C62.5467 22.5813 62.5976 22.8673 62.6481 23.1548C62.6985 23.4241 62.7827 23.7111 62.8675 23.981H67.6905C67.4711 23.6269 67.3026 23.0867 67.2184 22.3785C67.1291 21.6343 67.084 20.8855 67.0832 20.136V20.0841H67.0827ZM47.4879 8.11121C47.0158 7.5044 46.3747 7.01515 45.5656 6.67772C44.7561 6.32363 43.711 6.15467 42.4288 6.15467C41.535 6.15467 40.6246 6.39073 39.6803 6.8462C38.7361 7.30166 37.977 8.04363 37.3702 9.03831H37.2688V0.0166573H32.5134V23.9457H37.2688V14.8565C37.2688 13.0856 37.5558 11.821 38.146 11.0453C38.7194 10.2695 39.6637 9.89879 40.962 9.89879C42.0919 9.89879 42.9014 10.2529 43.3397 10.9606C43.7785 11.6688 44.0146 12.7315 44.0146 14.1645V23.9457H48.77V13.2883C48.77 12.2089 48.6687 11.2314 48.4831 10.3542C48.2975 9.47712 47.96 8.71849 47.4879 8.11121ZM22.3443 16.5094H22.2767L18.1961 0.017133H13.2717L9.12303 16.3071H9.05545L5.26089 0.017133H0L6.34029 23.9462H11.6692L15.6489 7.65574H15.7165L19.7638 23.9462H24.9914L27.8579 13.3221L31.433 0.017133H26.2725L22.3443 16.5094Z" fill="#393939"/>
</svg>
