<svg width="170" height="30" viewBox="0 0 170 30" fill="none" xmlns="http://www.w3.org/2000/svg">
<path fill-rule="evenodd" clip-rule="evenodd" d="M98.3626 5.56213V1.71597C98.3626 1.12426 98.7768 0.769224 99.3093 0.769224L116.469 0.769224C117.002 0.769224 117.475 1.18343 117.475 1.71597V4.97041C117.475 5.50296 117.002 6.21302 116.173 7.39645L107.298 20.0592C110.611 20 114.102 20.4734 117.061 22.1302C117.712 22.4852 117.889 23.0769 117.948 23.6095V27.6923C117.948 28.284 117.357 28.9349 116.706 28.5799C111.44 25.7988 104.398 25.503 98.5993 28.6391C98.0076 28.9349 97.3567 28.3432 97.3567 27.7515V23.8462C97.3567 23.2544 97.3567 22.1894 98.0076 21.2426L108.303 6.50888L99.3685 6.50888C98.836 6.50888 98.3626 6.09467 98.3626 5.56213ZM35.8182 29.4083H30.6111C30.1377 29.3491 29.7235 28.9941 29.6644 28.5207L29.6644 1.77515C29.6644 1.2426 30.1377 0.828399 30.6703 0.828399L35.5223 0.828399C36.0549 0.828399 36.4099 1.2426 36.4691 1.71597V5.2071H36.5874C37.83 1.83431 40.2561 0.236683 43.4513 0.236683C46.7058 0.236683 48.7768 1.83431 50.1969 5.2071C51.4395 1.83431 54.3389 0.236683 57.4158 0.236683C59.6052 0.236683 61.9721 1.12426 63.4514 3.19526C65.1082 5.44379 64.7531 8.69823 64.7531 11.5976V28.5207C64.7531 29.0533 64.2798 29.4675 63.7472 29.4675H58.5993C58.0667 29.4083 57.6525 28.9941 57.6525 28.5207V14.3195C57.6525 13.1953 57.7709 10.355 57.5342 9.28993C57.12 7.51478 55.9957 6.98224 54.4573 6.98224C53.2147 6.98224 51.8537 7.81065 51.3212 9.1716C50.7886 10.5325 50.8478 12.7811 50.8478 14.3195V28.5207C50.8478 29.0533 50.3744 29.4675 49.8419 29.4675H44.6348C44.1022 29.4083 43.688 28.9941 43.688 28.5207V14.3195C43.688 11.3609 44.1614 6.92307 40.4928 6.92307C36.7649 6.92307 36.8833 11.1834 36.8833 14.3195V28.5207C36.8241 28.9941 36.4099 29.4083 35.8182 29.4083ZM132.268 0.236683C140.019 0.236683 144.221 6.8639 144.221 15.3254C144.221 23.4911 139.605 30 132.268 30C124.694 30 120.552 23.3728 120.552 15.0888C120.493 6.74556 124.694 0.236683 132.268 0.236683ZM132.268 5.73964C128.422 5.73964 128.185 11.0059 128.185 14.2604C128.185 17.5148 128.126 24.497 132.209 24.497C136.232 24.497 136.469 18.8757 136.469 15.4438C136.469 13.1953 136.351 10.4734 135.7 8.3432C135.108 6.44971 133.925 5.73964 132.268 5.73964ZM154.221 29.4083H149.014C148.481 29.3491 148.067 28.9349 148.067 28.4616V1.6568C148.126 1.18343 148.54 0.769224 149.073 0.769224L153.925 0.769224C154.398 0.769224 154.753 1.12426 154.872 1.53847V5.6213H154.99C156.469 1.95266 158.481 0.236683 162.09 0.236683C164.398 0.236683 166.706 1.06508 168.185 3.37277C169.546 5.50295 169.546 9.11242 169.546 11.716V28.5799C169.487 29.0533 169.073 29.4083 168.54 29.4083H163.333C162.86 29.3491 162.445 28.9941 162.386 28.5799V14.0237C162.386 11.0651 162.741 6.80474 159.132 6.80474C157.889 6.80474 156.706 7.63314 156.114 8.93492C155.404 10.5917 155.286 12.1893 155.286 14.0237V28.4616C155.227 28.9941 154.753 29.4083 154.221 29.4083ZM84.694 16.6272C84.694 18.6391 84.7531 20.355 83.7472 22.1894C82.9188 23.6686 81.617 24.5562 80.1377 24.5562C78.1259 24.5562 76.9425 23.0178 76.9425 20.7692C76.9425 16.3314 80.907 15.503 84.694 15.503V16.6272ZM89.9602 29.3491C89.6052 29.645 89.1318 29.7041 88.7176 29.4675C87.0016 28.0473 86.6466 27.3373 85.6999 25.9763C82.8596 28.8757 80.7886 29.7633 77.12 29.7633C72.7413 29.7633 69.3093 27.0414 69.3093 21.6568C69.3093 17.3965 71.617 14.5562 74.8715 13.1361C77.7117 11.8935 81.6762 11.6568 84.694 11.3018V10.6509C84.694 9.40829 84.8123 7.929 84.0431 6.86391C83.3922 5.91717 82.2088 5.50295 81.1437 5.50295C79.1318 5.50295 77.3567 6.50888 76.9425 8.63906C76.8241 9.11243 76.5283 9.58579 76.0549 9.58579L71.0253 9.05325C70.6111 8.93491 70.1377 8.63906 70.2561 7.98817C71.4395 1.83432 76.9425 0 81.9129 0C84.4573 0 87.7709 0.650884 89.7827 2.60355C92.3271 4.97041 92.0904 8.16569 92.0904 11.5976V19.7041C92.0904 22.1302 93.0963 23.1953 94.0431 24.5562C94.3981 25.0296 94.4573 25.6213 94.0431 25.9172C92.9188 26.8047 91.0253 28.4616 89.9602 29.3491ZM16.3507 16.6272C16.3507 18.6391 16.4099 20.355 15.404 22.1894C14.5756 23.6686 13.2738 24.5562 11.7945 24.5562C9.78269 24.5562 8.59926 23.0178 8.59926 20.7692C8.59926 16.3314 12.5638 15.503 16.3507 15.503V16.6272ZM21.5578 29.3491C21.2028 29.645 20.7294 29.7041 20.3152 29.4675C18.5993 28.0473 18.2442 27.3373 17.2975 25.9763C14.4573 28.8757 12.3862 29.7633 8.7176 29.7633C4.3389 29.7633 0.906952 27.0414 0.906952 21.6568C0.906952 17.3965 3.21464 14.5562 6.46908 13.1361C9.30932 11.8935 13.2738 11.6568 16.2916 11.3018V10.6509C16.2916 9.40829 16.4099 7.929 15.6407 6.86391C14.9898 5.91717 13.8064 5.50295 12.7413 5.50295C10.7294 5.50295 8.95429 6.50888 8.54009 8.63906C8.42174 9.11243 8.12589 9.58579 7.65251 9.58579L2.62293 9.05325C2.20872 8.93491 1.73536 8.63906 1.8537 7.98817C3.03713 1.83432 8.54009 0 13.5105 0C16.0549 0 19.3685 0.650884 21.3803 2.60355C23.9247 4.97041 23.688 8.16569 23.688 11.5976L23.688 19.7041C23.688 22.1302 24.6939 23.1953 25.6407 24.5562C25.9957 25.0296 26.0549 25.6213 25.6407 25.9172C24.5164 26.8047 22.6229 28.4616 21.5578 29.3491Z" fill="#393939"/>
</svg>
