<svg width="77" height="30" viewBox="0 0 77 30" fill="none" xmlns="http://www.w3.org/2000/svg">
<path d="M21.1572 29.5896H16.1935V26.9987C15.1674 28.8457 12.7433 30 10.1653 30C7.58728 30 5.36839 29.1022 3.52144 27.2552C1.66167 25.4083 0.763855 22.9842 0.763855 20.0342C0.763855 17.0329 1.66167 14.6601 3.50862 12.8132C5.35556 10.9662 7.57446 10.0171 10.1525 10.0171C12.7818 10.0171 15.1546 11.1201 16.1807 12.9671V0H21.1572V29.5896ZM10.9862 14.7755C8.15163 14.7755 5.93273 16.8662 5.93273 19.9444C5.93273 21.5092 6.42012 22.779 7.36924 23.7666C8.35684 24.7157 9.54966 25.2031 10.9862 25.2031C12.4227 25.2031 13.6155 24.7157 14.6031 23.7666C15.6292 22.779 16.1166 21.5092 16.1166 19.9444C16.1166 18.3797 15.5779 17.1484 14.5518 16.2121C13.5257 15.2629 12.3329 14.7755 10.9862 14.7755ZM37.0358 20.6499C37.0358 23.7281 35.2273 25.1261 32.893 25.1261C30.8793 25.1261 29.2376 23.7666 29.2376 20.8551V10.4275H24.1841V21.7529C24.1841 27.05 27.0956 30 31.7386 30C33.7523 30 36.0097 28.8457 37.0358 26.8833V29.5896H42.0379V10.4275H37.0358V20.6499ZM63.778 19.9444C63.778 20.4831 63.7395 21.0475 63.701 21.6631H49.0794C49.4129 24.1642 51.542 25.7674 54.3765 25.7674C56.3902 25.7674 58.3141 24.9081 59.1734 23.3048L62.9956 25.357C61.3539 28.4737 57.8652 30 54.043 30C51.247 30 48.9126 29.0509 46.9887 27.2039C45.0648 25.3185 44.1157 22.8944 44.1157 19.9444C44.1157 16.9944 45.0648 14.6088 46.9887 12.7619C48.9126 10.9149 51.2598 10.0171 54.043 10.0171C56.8391 10.0171 59.135 10.9149 60.9819 12.7619C62.8288 14.6088 63.778 16.9944 63.778 19.9444ZM49.0409 18.2642H58.8913C58.5193 15.6734 56.5954 14.1984 54.0943 14.1984C51.4265 14.1984 49.4128 15.7631 49.0409 18.2642ZM67.2153 3.11672H72.179V10.4275H76.2448V14.4549H72.179V29.6024H67.2153V14.4421H63.7267V10.4275H67.2153V3.11672Z" fill="#393939"/>
</svg>
