<svg width="153" height="30" viewBox="0 0 153 30" fill="none" xmlns="http://www.w3.org/2000/svg">
<path d="M78.581 14.5706C77.3294 14.5706 76.4272 14.9811 75.5124 15.3992V24.8604C76.3887 24.9439 76.891 24.9439 77.7223 24.9439C80.7264 24.9439 81.1382 23.5681 81.1382 21.6473V17.1285C81.1382 15.71 80.6675 14.5706 78.581 14.5706ZM58.6301 14.0543C56.5458 14.0543 56.0701 15.1985 56.0701 16.6157V17.412H61.1873V16.6157C61.1873 15.1985 60.7117 14.0543 58.6301 14.0543ZM19.9813 23.9021C19.9813 25.0232 20.5103 25.6054 21.6777 25.6054C22.93 25.6054 23.6715 25.1971 24.5857 24.7776V22.5333H21.8475C20.551 22.5333 19.9813 22.7747 19.9813 23.9021ZM97.9882 14.5706C95.9004 14.5706 95.1771 15.71 95.1771 17.1285V22.3053C95.1771 23.7274 95.9004 24.8702 97.9882 24.8702C100.07 24.8702 100.799 23.7274 100.799 22.3053V17.1285C100.799 15.71 100.07 14.5706 97.9882 14.5706ZM9.74981 29.7068H3.61259V14.852H0.546082V9.73341H3.61329V6.65918C3.61329 2.48281 5.34403 0 10.2634 0H14.359V5.11997H11.7991C9.88381 5.11997 9.75753 5.83556 9.75753 7.17062L9.74981 9.73271H14.3871L13.8448 14.8513H9.74981V29.7068ZM30.7243 29.7453H25.6092L25.3882 28.4517C23.0527 29.7453 20.9684 29.9551 19.5934 29.9551C15.8421 29.9551 13.8455 27.4491 13.8455 23.9834C13.8455 19.8948 16.1754 18.4355 20.3433 18.4355H24.5857V17.5516C24.5857 15.4644 24.3464 14.852 21.1368 14.852H15.8891L16.402 9.73341H22.1379C29.1802 9.73341 30.7243 11.958 30.7243 17.593V29.7453ZM48.118 15.2273C44.935 14.6815 44.0209 14.5615 42.4894 14.5615C39.7386 14.5615 38.9072 15.1684 38.9072 17.5046V21.9237C38.9072 24.2599 39.7386 24.8695 42.4894 24.8695C44.0209 24.8695 44.935 24.7474 48.118 24.1995V29.1925C45.33 29.8176 43.5137 29.9818 41.9787 29.9818C35.3896 29.9818 32.7707 26.5168 32.7707 21.5112V17.9255C32.7707 12.9157 35.3896 9.44437 41.9787 9.44437C43.5137 9.44437 45.33 9.60923 48.118 10.2371V15.2273ZM67.3238 21.5112H56.0694V21.9237C56.0694 24.2599 56.9015 24.8695 59.6516 24.8695C62.1239 24.8695 63.6329 24.7474 66.8103 24.1995V29.1925C63.7459 29.8176 62.1491 29.9818 59.143 29.9818C52.5532 29.9818 49.9329 26.5168 49.9329 21.5112V17.4113C49.9329 13.0314 51.8769 9.44437 58.6294 9.44437C65.3819 9.44437 67.3238 12.99 67.3238 17.4113V21.5112ZM87.274 21.6059C87.274 26.4438 85.8913 29.9726 77.5147 29.9726C74.4895 29.9726 72.7153 29.7068 69.3766 29.1932V1.53781L75.5117 0.514243V10.188C76.8377 9.69552 78.5537 9.44507 80.1153 9.44507C86.2512 9.44507 87.2733 12.1959 87.2733 16.6164V21.6059H87.274ZM106.941 21.7111C106.941 25.8847 105.218 29.9327 98.0086 29.9327C90.7958 29.9327 89.0405 25.8847 89.0405 21.7111V17.6814C89.0405 13.5057 90.7958 9.457 98.0086 9.457C105.218 9.457 106.941 13.5057 106.941 17.6814V21.7111ZM126.594 21.7111C126.594 25.8847 124.869 29.9327 117.661 29.9327C110.449 29.9327 108.693 25.8847 108.693 21.7111V17.6814C108.693 13.5057 110.449 9.457 117.661 9.457C124.869 9.457 126.594 13.5057 126.594 17.6814V21.7111ZM146.763 29.7068H140.113L134.489 20.3178V29.7068H128.352V1.53711L134.489 0.51354V18.6481L140.113 9.73341H146.763L140.623 19.4619L146.763 29.7068ZM117.64 14.5706C115.556 14.5706 114.833 15.71 114.833 17.1285V22.3053C114.833 23.7274 115.556 24.8702 117.64 24.8702C119.722 24.8702 120.458 23.7274 120.458 22.3053V17.1285C120.458 15.71 119.722 14.5706 117.64 14.5706ZM150.266 26.2032C151.3 26.2032 152.122 27.0457 152.122 28.0981C152.122 29.1666 151.299 30 150.258 30C149.223 30 148.383 29.1666 148.383 28.0981C148.383 27.0457 149.223 26.2032 150.258 26.2032H150.266ZM150.258 26.4978C149.426 26.4978 148.744 27.2141 148.744 28.0981C148.744 28.9982 149.426 29.7053 150.266 29.7053C151.107 29.7138 151.778 28.9982 151.778 28.1065C151.778 27.2148 151.107 26.4978 150.266 26.4978H150.258ZM149.906 29.2009H149.569V27.0864C149.746 27.0619 149.914 27.0373 150.167 27.0373C150.486 27.0373 150.696 27.1047 150.824 27.1966C150.948 27.2899 151.015 27.4323 151.015 27.6337C151.015 27.9129 150.831 28.0805 150.604 28.1486V28.1647C150.789 28.1991 150.914 28.3661 150.957 28.6769C151.006 29.0059 151.058 29.1315 151.09 29.2002H150.738C150.688 29.1315 150.637 28.9385 150.594 28.66C150.545 28.3913 150.409 28.2903 150.14 28.2903H149.906V29.2009H149.906ZM149.906 28.0307H150.15C150.426 28.0307 150.661 27.929 150.661 27.6673C150.661 27.4821 150.528 27.2976 150.15 27.2976C150.04 27.2976 149.963 27.306 149.906 27.3137V28.0307Z" fill="#393939"/>
</svg>
