<svg width="112" height="30" viewBox="0 0 112 30" fill="none" xmlns="http://www.w3.org/2000/svg">
<path d="M15.3861 28.0663C13.7163 28.3595 12.017 28.4474 10.2593 28.6816L4.89781 12.9786V29.3555C3.22795 29.5313 1.70455 29.7656 0.122498 30V0H4.57574L10.6694 17.0217V0H15.3861V28.0663ZM24.6147 10.9863C26.4312 10.9863 29.2144 10.8984 30.8843 10.8984V15.5858C28.8041 15.5858 26.3726 15.5858 24.6147 15.6737V22.6465C27.3687 22.4708 30.1226 22.2362 32.9057 22.1483V26.6597L19.9271 27.6854V0H32.9057V4.68751H24.6147V10.9863ZM50.3373 4.68762H45.4741V26.2501C43.892 26.2501 42.31 26.2501 40.7868 26.3085V4.68762H35.9235V0H50.3375L50.3373 4.68762ZM57.9544 10.6642H64.3705V15.3516H57.9544V25.9864H53.3545V0H66.4506V4.68751H57.9544V10.6642ZM74.0677 21.8848C76.7338 21.9432 79.429 22.1486 82.0365 22.2948V26.9238C77.8471 26.66 73.6576 26.3966 69.3803 26.3085V0H74.0677V21.8848ZM85.9915 27.2461C87.4857 27.3341 89.0677 27.422 90.5911 27.5975V0H85.9915V27.2461ZM111.128 0L105.181 14.2676L111.128 30C109.37 29.7656 107.613 29.4433 105.855 29.1503L102.486 20.4786L99.0584 28.4474C97.3588 28.1542 95.7182 28.0663 94.0193 27.8319L100.054 14.0917L94.605 0H99.6439L102.72 7.88088L106.001 0H111.128Z" fill="#393939"/>
</svg>
