<svg width="156" height="30" viewBox="0 0 156 30" fill="none" xmlns="http://www.w3.org/2000/svg">
<path d="M119.146 21.5838C119.146 21.9919 119.11 22.4128 118.998 22.7825C118.535 24.3178 116.945 25.6162 114.956 25.6162C113.298 25.6162 111.981 24.6742 111.981 22.6847C111.981 19.6398 115.332 18.7989 119.147 18.8201L119.146 21.5835V21.5838ZM125.13 16.2775C125.13 11.2566 122.985 6.83861 115.736 6.83861C112.015 6.83861 109.061 7.88378 107.449 8.81531L108.63 12.8518C110.103 11.9217 112.451 11.1517 114.673 11.1517C118.35 11.1415 118.952 13.234 118.952 14.5731V14.8901C110.937 14.8783 105.871 17.6536 105.871 23.3073C105.871 26.762 108.451 29.9976 112.937 29.9976C115.693 29.9976 118.002 28.8974 119.384 27.1333H119.52C119.52 27.1333 120.434 30.9633 125.481 29.4979C125.218 27.9051 125.131 26.2049 125.131 24.1603L125.13 16.2775H125.13ZM0.244812 0.00094856C0.244812 0.00094856 5.48256 21.463 6.31894 24.9461C7.29459 29.0118 9.05301 30.5085 14.1204 29.4979L17.3907 16.1923C18.2199 12.8857 18.7749 10.5282 19.3093 7.16794H19.4023C19.7774 10.5638 20.3096 12.8959 20.992 16.2032C20.992 16.2032 22.3226 22.2441 23.0052 25.4159C23.6886 28.5868 25.5905 30.5865 30.5547 29.4979L38.3476 0H32.0576L29.3959 12.754C28.6803 16.4649 28.0316 19.3679 27.5309 22.7621H27.4419C26.9871 19.3978 26.4079 16.6132 25.6812 12.9967L22.9122 0H16.3574L13.3939 12.6691C12.5551 16.52 11.7686 19.6282 11.2703 22.9094H11.1797C10.6681 19.8197 9.98714 15.9116 9.25018 12.1857C9.25018 12.1857 7.49082 3.12367 6.87201 0L0.244812 0.00094856ZM50.2458 21.5838C50.2458 21.9919 50.2095 22.4128 50.0961 22.7825C49.6334 24.3178 48.0427 25.6162 46.0539 25.6162C44.3954 25.6162 43.0802 24.6742 43.0802 22.6847C43.0802 19.6398 46.4307 18.7989 50.2465 18.8201L50.2458 21.5835V21.5838ZM56.229 16.2775C56.229 11.2566 54.0836 6.83861 46.836 6.83861C43.1139 6.83861 40.1582 7.88378 38.5471 8.81531L39.7264 12.8518C41.1994 11.9217 43.5474 11.1517 45.7701 11.1517C49.4497 11.1415 50.0519 13.234 50.0519 14.5731V14.8901C42.0334 14.8783 36.9691 17.6536 36.9691 23.3073C36.9691 26.762 39.5482 29.9976 44.0307 29.9976C46.7909 29.9976 49.0981 28.8974 50.4814 27.1333H50.6161C50.6161 27.1333 51.533 30.9633 56.5788 29.4979C56.3149 27.9051 56.229 26.2049 56.229 24.1603V16.2775ZM66.2148 23.2364V0.00094856H60.2237V29.4989H66.2148V23.2364ZM144.589 0.00094856V21.761C144.589 24.7625 145.155 26.8631 146.361 28.1486C147.419 29.2725 149.156 30 151.239 30C153.011 30 154.753 29.6619 155.575 29.357L155.498 24.6766C154.886 24.8261 154.184 24.9471 153.222 24.9471C151.181 24.9471 150.498 23.6393 150.498 20.946V12.6202H155.715V6.97551H150.498V0.00094856H144.589ZM129.125 7.33901V29.4989H135.305V18.1526C135.305 17.5393 135.342 17.0049 135.439 16.5162C135.897 14.1382 137.714 12.6202 140.325 12.6202C141.04 12.6202 141.553 12.698 142.108 12.7768V6.97551C141.642 6.88274 141.326 6.83932 140.746 6.83932C138.44 6.83932 135.816 8.32748 134.715 11.5197H134.548V7.33901H129.125ZM70.4097 7.33901V29.4989H76.4309V16.5043C76.4309 15.8945 76.5026 15.2496 76.7138 14.6906C77.2127 13.3823 78.4304 11.85 80.3734 11.85C82.8043 11.85 83.9394 13.904 83.9394 16.8685V29.4972H89.9558V16.3444C89.9558 15.7626 90.0353 15.0612 90.2073 14.5482C90.7013 13.0591 92.013 11.8483 93.8195 11.8483C96.2826 11.8483 97.465 13.8663 97.465 17.3556V29.4965H103.485V16.4443C103.485 9.56176 99.9905 6.83719 96.0447 6.83719C94.2988 6.83719 92.9193 7.27448 91.6718 8.03896C90.6242 8.68434 89.6846 9.59878 88.8649 10.8008H88.7759C87.8244 8.41266 85.5858 6.83837 82.6685 6.83837C78.9209 6.83837 77.2365 8.7382 76.2148 10.3493H76.1251V7.3383H70.4097" fill="#393939"/>
</svg>
